<svg version="1.0" xmlns="http://www.w3.org/2000/svg"
 width="100" height="100" viewBox="0 0 800.000000 800.000000"
 preserveAspectRatio="xMidYMid meet">
<g transform="translate(0.000000,800.000000) scale(0.100000,-0.100000)"
fill="#000000" stroke="none">
<path d="M3685 7994 c-391 -40 -655 -94 -970 -200 -581 -194 -1100 -518 -1545
-964 -642 -641 -1028 -1431 -1147 -2345 -26 -201 -26 -769 0 -970 118 -909
503 -1699 1137 -2336 91 -91 208 -201 260 -244 619 -512 1302 -809 2095 -912
201 -26 769 -26 970 0 793 103 1478 401 2095 912 117 97 380 359 482 480 504
602 812 1309 915 2100 26 201 26 769 0 970 -63 482 -190 900 -402 1320 -202
400 -426 708 -754 1035 -627 625 -1406 1009 -2296 1131 -121 17 -214 21 -475
24 -179 1 -343 1 -365 -1z m1448 -1493 c453 -118 782 -496 888 -1018 17 -85
23 -155 27 -330 l4 -223 264 0 264 0 0 -110 0 -110 -266 0 -267 0 7 -427 c3
-236 9 -893 12 -1461 l7 -1032 28 -43 c38 -58 141 -117 228 -132 l66 -10 3
-68 3 -67 -586 0 -585 0 0 70 0 70 65 0 c36 0 80 6 99 14 46 19 102 71 132
122 56 95 54 34 54 1557 l0 1407 -475 0 -475 0 0 -1408 c0 -1552 -4 -1455 63
-1556 43 -65 134 -123 212 -136 30 -5 60 -12 65 -15 6 -3 10 -33 10 -66 l0
-59 -570 0 -570 0 0 65 0 65 63 0 c62 0 89 11 143 57 39 33 90 127 102 187 13
64 18 1486 6 1486 -4 0 -497 -304 -1096 -676 l-1090 -677 -81 81 c-45 45 -79
83 -77 85 3 2 320 199 705 437 385 239 715 443 732 455 l33 22 -233 46 c-127
25 -267 51 -310 57 -43 7 -120 25 -172 41 l-94 29 -198 -49 c-177 -44 -799
-158 -809 -148 -5 5 -45 220 -41 223 1 2 146 26 321 53 176 28 343 59 373 68
l53 17 -78 40 c-148 78 -269 176 -381 312 -183 220 -262 431 -248 654 11 177
85 329 226 470 177 176 378 266 659 292 393 37 752 -99 983 -375 221 -263 211
-598 -29 -956 -104 -156 -276 -307 -477 -420 -52 -30 -94 -56 -92 -58 10 -9
369 -107 702 -190 l60 -15 330 205 330 205 3 576 2 576 -230 0 -230 0 0 110 0
110 941 0 941 0 -5 268 c-5 288 -14 357 -68 542 -33 114 -107 280 -160 357
-80 117 -170 189 -271 218 -48 13 -70 14 -134 5 -85 -11 -219 -62 -295 -111
-123 -79 -243 -262 -274 -421 -19 -98 -19 -272 0 -363 15 -72 70 -200 144
-334 23 -41 40 -76 38 -77 -2 -2 -108 -1 -235 3 l-232 6 -23 31 c-13 17 -52
80 -86 140 -50 86 -65 121 -70 167 -4 31 -13 64 -20 73 -11 13 -12 56 -9 194
5 147 9 189 28 247 46 143 114 249 236 365 158 150 337 239 554 275 118 20
330 13 433 -14z"/>
<path d="M2380 5019 c-71 -12 -164 -57 -219 -105 -97 -84 -182 -258 -217 -441
-20 -106 -14 -304 11 -398 44 -158 129 -298 257 -421 75 -72 211 -174 253
-191 19 -7 125 63 220 145 136 120 243 269 301 422 28 72 29 82 29 255 0 172
-1 184 -29 268 -67 205 -220 390 -369 445 -65 25 -165 33 -237 21z"/>
</g>
</svg>
